# xmcd
#
# Track frame offsets: 
#        150
#        12064
#        21598
#        33315
#        43379
#        55564
#        65955
#        78883
#        88408
#        98849
#        108502
#        117107
#        131911
#        140685
#        149536
#        159373
#        170771
#        181771
#
# Disc length: 2576 seconds
#
# Revision: 1
# Processed by: cddbd v1.5.2PL0 Copyright (c) Steve Scherf et al.
# Submitted via: ExactAudioCopy v1.0b1
#
DISCID=030a0e12
DTITLE=Bobby Lewis - Bobby Lewis: The Complete Recordings
DYEAR=2000
DGENRE=R&B/Soul
TTITLE0=Tossin' And Turnin' (mono)
TTITLE1=What A Walk (stereo)
TTITLE2=Yes, Oh Yes, It Did (stereo)
TTITLE3=Lonely Teardrops (stereo)
TTITLE4=I'm Tossin' And Turnin' Again (mono)
TTITLE5=Are You Ready (stereo)
TTITLE6=Boom A Chick Chick (mono)
TTITLE7=One Track Mind (stereo)
TTITLE8=Cry No More (stereo)
TTITLE9=Mamie In The Afternoon (mono)
TTITLE10=Head Over Heels (stereo)
TTITLE11=Nothing But The Blues (mono)
TTITLE12=Turn Over A New Leaf (stereo)
TTITLE13=A Man's Gotta Be A Man (mono)
TTITLE14=Let Me Be The One You Love (stereo)
TTITLE15=Day By Day I Need Your Love (mono)
TTITLE16=Oh Yes, I Love You (stereo)
TTITLE17=Tossin' And Turnin' (stereo)
EXTD=
EXTT0=
EXTT1=
EXTT2=
EXTT3=
EXTT4=
EXTT5=
EXTT6=
EXTT7=
EXTT8=
EXTT9=
EXTT10=
EXTT11=
EXTT12=
EXTT13=
EXTT14=
EXTT15=
EXTT16=
EXTT17=
PLAYORDER=
